<svg width="1920" height="1080" viewBox="0 0 1920 1080" xmlns="http://www.w3.org/2000/svg" role="img" aria-label="AdvancedTax Zoom background">
  <rect width="1920" height="1080" fill="#0f1f2e"/>
  <path d="M0 0h1920v1080H0z" fill="#0f1f2e"/>
  <path d="M1280 0h640v1080h-820L1280 0Z" fill="#13314b"/>
  <path d="M0 780h1920v300H0z" fill="#fbfaf6"/>
  <path d="M0 822h1920" stroke="#c9a961" stroke-width="6"/>
  <g transform="translate(150 135)">
    <rect width="520" height="240" rx="0" fill="#ffffff"/>
    <path d="M398 18h20v36h36v20h-36v36h-20V74h-36V54h36V18Z" fill="#0b70a5"/>
    <text x="48" y="88" font-family="Georgia, 'Times New Roman', serif" font-size="50" font-weight="700" fill="#0b6297" letter-spacing="1">ADVANCED</text>
    <text x="48" y="140" font-family="Georgia, 'Times New Roman', serif" font-size="50" font-weight="700" fill="#0b6297" letter-spacing=".4">ACCOUNTING</text>
    <text x="54" y="176" font-family="Arial, Helvetica, sans-serif" font-size="22" font-weight="700" fill="#0f1f2e">TAXATION &amp; BUSINESS SERVICES</text>
    <line x1="52" y1="188" x2="368" y2="188" stroke="#c9a961" stroke-width="4"/>
    <text x="144" y="216" font-family="Arial, Helvetica, sans-serif" font-size="18" font-weight="700" fill="#0f1f2e">BUSINESS ADVISORS</text>
  </g>
  <g transform="translate(150 470)">
    <text x="0" y="0" font-family="Georgia, 'Times New Roman', serif" font-size="64" font-weight="700" fill="#ffffff">Business, Tax &amp; Finance Specialists</text>
    <text x="0" y="66" font-family="Arial, Helvetica, sans-serif" font-size="30" font-weight="700" fill="#d7bf82">Serving Australia-Wide virtually with offices in Parramatta and Liverpool</text>
  </g>
  <g transform="translate(150 860)">
    <text x="0" y="0" font-family="Arial, Helvetica, sans-serif" font-size="28" font-weight="700" fill="#0f1f2e">AdvancedTax</text>
    <text x="0" y="42" font-family="Arial, Helvetica, sans-serif" font-size="22" fill="#425161">Tax, accounting, finance and lending solutions</text>
  </g>
  <g transform="translate(1320 860)">
    <rect x="0" y="-70" width="420" height="120" rx="8" fill="#ffffff" stroke="#d8c99a"/>
    <text x="38" y="-18" font-family="Georgia, 'Times New Roman', serif" font-size="34" font-weight="700" fill="#0f1f2e">Home Loans</text>
    <text x="38" y="24" font-family="Arial, Helvetica, sans-serif" font-size="25" font-weight="700" fill="#0b70a5">by Choice</text>
    <text x="238" y="24" font-family="Arial, Helvetica, sans-serif" font-size="13" font-weight="700" fill="#6d7782">logo placeholder</text>
  </g>
</svg>
